<mxfile host="65bd71144e">
    <diagram id="0t7VvLJac00wkaHeYqTs" name="Page-1">
        <mxGraphModel dx="3190" dy="1685" grid="0" gridSize="10" guides="1" tooltips="1" connect="1" arrows="1" fold="1" page="0" pageScale="1" pageWidth="827" pageHeight="1169" math="0" shadow="0">
            <root>
                <mxCell id="0"/>
                <mxCell id="1" parent="0"/>
                <mxCell id="140" value="Book" style="html=1;dashed=0;whitespace=wrap;fontSize=32;" vertex="1" parent="1">
                    <mxGeometry x="-377" y="246" width="268" height="134" as="geometry"/>
                </mxCell>
                <mxCell id="141" value="Review" style="html=1;dashed=0;whitespace=wrap;fontSize=32;" vertex="1" parent="1">
                    <mxGeometry x="-711" y="583" width="268" height="134" as="geometry"/>
                </mxCell>
                <mxCell id="142" value="Chapter" style="html=1;dashed=0;whitespace=wrap;fontSize=32;" vertex="1" parent="1">
                    <mxGeometry x="-1057" y="246" width="268" height="134" as="geometry"/>
                </mxCell>
                <mxCell id="143" value="User" style="html=1;dashed=0;whitespace=wrap;fontSize=32;" vertex="1" parent="1">
                    <mxGeometry x="265" y="246" width="268" height="134" as="geometry"/>
                </mxCell>
                <mxCell id="144" value="Security" style="html=1;dashed=0;whitespace=wrap;fontSize=32;" vertex="1" parent="1">
                    <mxGeometry x="591" y="-12" width="268" height="134" as="geometry"/>
                </mxCell>
                <mxCell id="145" value="Profile" style="html=1;dashed=0;whitespace=wrap;fontSize=32;" vertex="1" parent="1">
                    <mxGeometry x="926" y="246" width="268" height="134" as="geometry"/>
                </mxCell>
                <mxCell id="146" value="Location" style="html=1;dashed=0;whitespace=wrap;fontSize=32;" vertex="1" parent="1">
                    <mxGeometry x="591" y="493" width="268" height="134" as="geometry"/>
                </mxCell>
                <mxCell id="147" value="" style="endArrow=none;html=1;rounded=0;fontSize=32;exitX=0;exitY=0.5;exitDx=0;exitDy=0;entryX=1;entryY=0.5;entryDx=0;entryDy=0;" edge="1" parent="1" source="140" target="150">
                    <mxGeometry relative="1" as="geometry">
                        <mxPoint x="-597" y="182" as="sourcePoint"/>
                        <mxPoint x="-437" y="182" as="targetPoint"/>
                    </mxGeometry>
                </mxCell>
                <mxCell id="151" value="1" style="edgeLabel;html=1;align=center;verticalAlign=middle;resizable=0;points=[];fontSize=32;" vertex="1" connectable="0" parent="147">
                    <mxGeometry x="0.067" relative="1" as="geometry">
                        <mxPoint as="offset"/>
                    </mxGeometry>
                </mxCell>
                <mxCell id="150" value="has" style="shape=rhombus;perimeter=rhombusPerimeter;whiteSpace=wrap;html=1;align=center;fontSize=32;" vertex="1" parent="1">
                    <mxGeometry x="-665" y="269" width="176" height="88" as="geometry"/>
                </mxCell>
                <mxCell id="153" value="" style="endArrow=none;html=1;rounded=0;fontSize=32;exitX=1;exitY=0.5;exitDx=0;exitDy=0;entryX=0;entryY=0.5;entryDx=0;entryDy=0;" edge="1" parent="1" source="142" target="150">
                    <mxGeometry relative="1" as="geometry">
                        <mxPoint x="-765" y="214" as="sourcePoint"/>
                        <mxPoint x="-605" y="214" as="targetPoint"/>
                    </mxGeometry>
                </mxCell>
                <mxCell id="154" value="N" style="edgeLabel;html=1;align=center;verticalAlign=middle;resizable=0;points=[];fontSize=32;" vertex="1" connectable="0" parent="153">
                    <mxGeometry x="-0.1543" relative="1" as="geometry">
                        <mxPoint x="15" as="offset"/>
                    </mxGeometry>
                </mxCell>
                <mxCell id="159" value="" style="endArrow=none;html=1;rounded=0;fontSize=32;exitX=0.5;exitY=0;exitDx=0;exitDy=0;entryX=0.5;entryY=1;entryDx=0;entryDy=0;" edge="1" parent="1" source="141" target="150">
                    <mxGeometry relative="1" as="geometry">
                        <mxPoint x="-388.9999999999998" y="563.9999999999998" as="sourcePoint"/>
                        <mxPoint x="-265" y="564" as="targetPoint"/>
                    </mxGeometry>
                </mxCell>
                <mxCell id="160" value="N" style="edgeLabel;html=1;align=center;verticalAlign=middle;resizable=0;points=[];fontSize=32;" vertex="1" connectable="0" parent="159">
                    <mxGeometry x="-0.1543" relative="1" as="geometry">
                        <mxPoint y="-7" as="offset"/>
                    </mxGeometry>
                </mxCell>
                <mxCell id="161" value="has" style="shape=rhombus;perimeter=rhombusPerimeter;whiteSpace=wrap;html=1;align=center;fontSize=32;" vertex="1" parent="1">
                    <mxGeometry x="-10" y="269" width="176" height="88" as="geometry"/>
                </mxCell>
                <mxCell id="162" value="" style="endArrow=none;html=1;rounded=0;fontSize=32;exitX=1;exitY=0.5;exitDx=0;exitDy=0;entryX=0;entryY=0.5;entryDx=0;entryDy=0;" edge="1" parent="1" source="140" target="161">
                    <mxGeometry relative="1" as="geometry">
                        <mxPoint x="2" y="457" as="sourcePoint"/>
                        <mxPoint x="162" y="457" as="targetPoint"/>
                    </mxGeometry>
                </mxCell>
                <mxCell id="166" value="N" style="edgeLabel;html=1;align=center;verticalAlign=middle;resizable=0;points=[];fontSize=32;" vertex="1" connectable="0" parent="162">
                    <mxGeometry x="-0.0455" relative="1" as="geometry">
                        <mxPoint as="offset"/>
                    </mxGeometry>
                </mxCell>
                <mxCell id="163" value="" style="endArrow=none;html=1;rounded=0;fontSize=32;entryX=0;entryY=0.5;entryDx=0;entryDy=0;" edge="1" parent="1" target="143">
                    <mxGeometry relative="1" as="geometry">
                        <mxPoint x="166" y="313" as="sourcePoint"/>
                        <mxPoint x="199" y="429" as="targetPoint"/>
                    </mxGeometry>
                </mxCell>
                <mxCell id="165" value="1" style="edgeLabel;html=1;align=center;verticalAlign=middle;resizable=0;points=[];fontSize=32;" vertex="1" connectable="0" parent="163">
                    <mxGeometry x="-0.0707" relative="1" as="geometry">
                        <mxPoint as="offset"/>
                    </mxGeometry>
                </mxCell>
                <mxCell id="170" value="1" style="endArrow=none;html=1;rounded=0;fontSize=32;entryX=0.5;entryY=1;entryDx=0;entryDy=0;exitX=0.5;exitY=0;exitDx=0;exitDy=0;" edge="1" parent="1" source="146" target="175">
                    <mxGeometry relative="1" as="geometry">
                        <mxPoint x="509.00000000000045" y="606" as="sourcePoint"/>
                        <mxPoint x="508.99999999999955" y="525" as="targetPoint"/>
                    </mxGeometry>
                </mxCell>
                <mxCell id="173" value="" style="endArrow=none;html=1;rounded=0;fontSize=32;entryX=1;entryY=0.5;entryDx=0;entryDy=0;" edge="1" parent="1" target="143">
                    <mxGeometry relative="1" as="geometry">
                        <mxPoint x="637" y="313" as="sourcePoint"/>
                        <mxPoint x="669.9999999999995" y="388" as="targetPoint"/>
                    </mxGeometry>
                </mxCell>
                <mxCell id="174" value="1" style="edgeLabel;html=1;align=center;verticalAlign=middle;resizable=0;points=[];fontSize=32;" vertex="1" connectable="0" parent="173">
                    <mxGeometry x="-0.0707" relative="1" as="geometry">
                        <mxPoint as="offset"/>
                    </mxGeometry>
                </mxCell>
                <mxCell id="175" value="has" style="shape=rhombus;perimeter=rhombusPerimeter;whiteSpace=wrap;html=1;align=center;fontSize=32;" vertex="1" parent="1">
                    <mxGeometry x="637" y="269" width="176" height="88" as="geometry"/>
                </mxCell>
                <mxCell id="176" value="" style="endArrow=none;html=1;rounded=0;fontSize=32;entryX=1;entryY=0.5;entryDx=0;entryDy=0;exitX=0;exitY=0.5;exitDx=0;exitDy=0;" edge="1" parent="1" source="145" target="175">
                    <mxGeometry relative="1" as="geometry">
                        <mxPoint x="937" y="404" as="sourcePoint"/>
                        <mxPoint x="833" y="403.9999999999998" as="targetPoint"/>
                    </mxGeometry>
                </mxCell>
                <mxCell id="177" value="1" style="edgeLabel;html=1;align=center;verticalAlign=middle;resizable=0;points=[];fontSize=32;" vertex="1" connectable="0" parent="176">
                    <mxGeometry x="-0.0707" relative="1" as="geometry">
                        <mxPoint x="-11" as="offset"/>
                    </mxGeometry>
                </mxCell>
                <mxCell id="179" value="" style="endArrow=none;html=1;rounded=0;fontSize=32;entryX=0.5;entryY=1;entryDx=0;entryDy=0;exitX=0.5;exitY=0;exitDx=0;exitDy=0;" edge="1" parent="1" source="175" target="144">
                    <mxGeometry relative="1" as="geometry">
                        <mxPoint x="162" y="11" as="sourcePoint"/>
                        <mxPoint x="388.99999999999955" y="-17" as="targetPoint"/>
                    </mxGeometry>
                </mxCell>
                <mxCell id="180" value="1" style="edgeLabel;html=1;align=center;verticalAlign=middle;resizable=0;points=[];fontSize=32;" vertex="1" connectable="0" parent="179">
                    <mxGeometry x="-0.0707" relative="1" as="geometry">
                        <mxPoint as="offset"/>
                    </mxGeometry>
                </mxCell>
                <mxCell id="186" value="Connection" style="html=1;dashed=0;whitespace=wrap;fontSize=32;" vertex="1" parent="1">
                    <mxGeometry x="-56" y="532" width="268" height="134" as="geometry"/>
                </mxCell>
                <mxCell id="187" value="" style="endArrow=none;html=1;rounded=0;fontSize=32;exitX=0.5;exitY=0;exitDx=0;exitDy=0;entryX=0.5;entryY=1;entryDx=0;entryDy=0;" edge="1" parent="1" source="186" target="161">
                    <mxGeometry relative="1" as="geometry">
                        <mxPoint x="-80" y="420" as="sourcePoint"/>
                        <mxPoint x="19" y="420" as="targetPoint"/>
                        <Array as="points"/>
                    </mxGeometry>
                </mxCell>
                <mxCell id="188" value="N" style="edgeLabel;html=1;align=center;verticalAlign=middle;resizable=0;points=[];fontSize=32;" vertex="1" connectable="0" parent="187">
                    <mxGeometry x="-0.0455" relative="1" as="geometry">
                        <mxPoint y="-3" as="offset"/>
                    </mxGeometry>
                </mxCell>
            </root>
        </mxGraphModel>
    </diagram>
</mxfile>